<?xml version="1.0" encoding="utf-8"?>
<!-- Generator: Adobe Illustrator 16.0.0, SVG Export Plug-In . SVG Version: 6.00 Build 0)  -->
<!DOCTYPE svg PUBLIC "-//W3C//DTD SVG 1.1//EN" "http://www.w3.org/Graphics/SVG/1.1/DTD/svg11.dtd">
<svg version="1.1" id="图层_1" xmlns="http://www.w3.org/2000/svg" xmlns:xlink="http://www.w3.org/1999/xlink" x="0px" y="0px"
	 width="32px" height="27.629px" viewBox="0 0 32 27.629" enable-background="new 0 0 32 27.629" xml:space="preserve">
<path fill="#66CCCC" d="M24.992,6.343c-1.068-1.57-3.203-2.324-5.902-2.072c-1.508-0.816-3.266-1.319-5.15-1.319h-0.502
	C7.41,3.266,2.826,8.289,3.077,14.316c0,0.189,0.063,0.314,0.063,0.504c-1.444,2.638-1.633,5.086-0.502,6.781
	c1.005,1.443,2.763,2.135,4.961,2.135c0.502,0,1.067-0.063,1.632-0.125c1.444,0.689,3.014,1.066,4.709,1.066h0.502
	c5.966-0.251,10.613-5.338,10.36-11.366c0-0.188-0.063-0.376-0.063-0.565C25.934,10.299,26.122,7.975,24.992,6.343z M23.986,7.033
	c0.629,0.879,0.69,2.072,0.252,3.454c-0.629-1.946-1.821-3.642-3.328-4.96C22.291,5.652,23.359,6.154,23.986,7.033z M6.844,7.347
	c1.758-1.884,4.082-3.014,6.656-3.14h0.439c4.834,0,8.792,3.517,9.482,8.226c-1.192,2.198-3.392,4.584-6.217,6.53
	c-2.637,1.822-5.463,2.951-7.849,3.328c-2.888-1.568-4.897-4.521-5.023-8.037C4.207,11.68,5.086,9.231,6.844,7.347z M3.642,20.848
	c-0.628-0.941-0.691-2.324-0.125-3.957c0.69,2.199,2.009,4.146,3.768,5.465C5.651,22.417,4.333,21.915,3.642,20.848z M21.035,20.283
	c-1.758,1.884-4.081,3.015-6.655,3.14h-0.44c-0.816,0-1.632-0.125-2.449-0.313c2.072-0.627,4.27-1.633,6.468-3.14
	c2.323-1.569,4.207-3.391,5.525-5.213C23.297,16.766,22.417,18.713,21.035,20.283z"/>
<path fill="#66CCCC" d="M10.8,11.115h0.377c1.318-0.188,2.261-1.444,2.072-2.763C13.061,7.159,11.994,6.28,10.8,6.28h-0.376
	C9.105,6.468,8.163,7.724,8.352,9.043C8.54,10.236,9.607,11.115,10.8,11.115z M9.858,7.975c0.188-0.251,0.439-0.439,0.753-0.439
	H10.8c0.565,0,1.067,0.439,1.193,1.005c0.125,0.628-0.377,1.256-1.005,1.381H10.8c-0.565,0-1.067-0.439-1.193-1.005
	C9.544,8.541,9.67,8.227,9.858,7.975z M10.11,19.152c0.188,0,0.314,0,0.502-0.063c1.884-0.252,3.203-2.01,2.889-3.895
	c-0.251-1.695-1.695-2.951-3.391-2.951c-0.188,0-0.314,0-0.502,0.063c-1.884,0.251-3.203,2.009-2.889,3.894
	C6.97,17.959,8.414,19.152,10.11,19.152z M9.796,13.564h0.314c1.067,0,2.009,0.815,2.135,1.884c0.188,1.192-0.628,2.323-1.821,2.512
	H10.11c-1.068,0-2.01-0.815-2.135-1.884C7.786,14.82,8.603,13.752,9.796,13.564z M16.766,14.003h0.377
	c1.444-0.188,2.512-1.57,2.262-3.077c-0.188-1.319-1.319-2.324-2.639-2.324H16.39c-1.444,0.188-2.512,1.57-2.261,3.077
	C14.254,13.062,15.447,14.003,16.766,14.003z M15.573,10.424c0.251-0.314,0.565-0.502,0.942-0.565h0.188
	c0.689,0,1.318,0.502,1.443,1.256c0.063,0.377-0.063,0.753-0.25,1.068c-0.252,0.313-0.565,0.502-0.942,0.565h-0.188
	c-0.689,0-1.317-0.502-1.444-1.256C15.259,11.115,15.384,10.738,15.573,10.424z"/>
</svg>
