<?xml version="1.0" encoding="utf-8"?>
<!-- Generator: Adobe Illustrator 16.0.0, SVG Export Plug-In . SVG Version: 6.00 Build 0)  -->
<!DOCTYPE svg PUBLIC "-//W3C//DTD SVG 1.1//EN" "http://www.w3.org/Graphics/SVG/1.1/DTD/svg11.dtd">
<svg version="1.1" id="图层_1" xmlns="http://www.w3.org/2000/svg" xmlns:xlink="http://www.w3.org/1999/xlink" x="0px" y="0px"
	 width="32px" height="32px" viewBox="0 0 32 32" enable-background="new 0 0 32 32" xml:space="preserve">
<path fill="#66CCCC" d="M29.455,12.654c-0.146-0.509-0.582-0.873-1.092-0.945l-7.709-1.164L17.236,3.2
	C17.018,2.691,16.51,2.4,16,2.4c-0.509,0-1.018,0.291-1.236,0.8l-3.418,7.345l-7.709,1.164c-0.509,0.073-0.945,0.437-1.091,0.945
	c-0.146,0.509-0.073,1.019,0.291,1.382l5.673,5.745L8,23.055c-0.073,0.363,0.218,0.8,0.582,0.8c0.363,0.073,0.8-0.218,0.8-0.582
	L9.891,20c0.073-0.437-0.073-0.873-0.364-1.164L4,13.164L11.636,12c0.437-0.073,0.873-0.364,1.019-0.8L16,4l3.346,7.2
	c0.218,0.436,0.582,0.727,1.018,0.8L28,13.164l-5.527,5.672c-0.291,0.291-0.437,0.728-0.363,1.164l1.309,8l-6.764-3.709
	c-0.436-0.219-0.945-0.219-1.309,0l-6.909,3.781c-0.364,0.219-0.509,0.655-0.291,1.019C8.364,29.455,8.8,29.6,9.164,29.382L16,25.6
	l6.836,3.782c0.219,0.146,0.438,0.146,0.654,0.146c0.291,0,0.582-0.072,0.801-0.219c0.436-0.291,0.654-0.799,0.582-1.309
	l-1.383-8.072l5.674-5.819C29.527,13.673,29.673,13.164,29.455,12.654z"/>
<path fill="#66CCCC" d="M16,20c0.218,0,0.364-0.072,0.51-0.219l3.271-3.271c0.291-0.292,0.291-0.728,0-1.019
	c-0.291-0.291-0.727-0.291-1.018,0L16,18.254l-2.764-2.763c-0.291-0.291-0.727-0.291-1.018,0c-0.291,0.291-0.291,0.728,0,1.019
	l3.272,3.271C15.636,19.928,15.782,20,16,20z"/>
</svg>
