<?xml version="1.0" encoding="utf-8"?>
<!-- Generator: Adobe Illustrator 16.0.0, SVG Export Plug-In . SVG Version: 6.00 Build 0)  -->
<!DOCTYPE svg PUBLIC "-//W3C//DTD SVG 1.1//EN" "http://www.w3.org/Graphics/SVG/1.1/DTD/svg11.dtd">
<svg version="1.1" id="图层_1" xmlns="http://www.w3.org/2000/svg" xmlns:xlink="http://www.w3.org/1999/xlink" x="0px" y="0px"
	 width="32px" height="32px" viewBox="0 0 32 32" enable-background="new 0 0 32 32" xml:space="preserve">
<path fill="#66CCCC" d="M29.164,14.4L17.6,2.836c-0.873-0.873-2.327-0.873-3.127,0L2.836,14.4c-0.655,0.655-0.8,1.6-0.437,2.4
	s1.091,1.382,2.037,1.382H5.6v8.654c0,1.674,1.309,2.982,2.982,2.982h14.836c1.673,0,2.982-1.309,2.982-2.982v-2.764
	c0-0.436-0.291-0.727-0.728-0.727s-0.728,0.291-0.728,0.727v2.764c0,0.801-0.654,1.527-1.527,1.527h-2.764v-7.418
	c0-0.436-0.291-0.727-0.727-0.727h-7.855c-0.437,0-0.728,0.291-0.728,0.727v7.418H8.582c-0.8,0-1.527-0.654-1.527-1.527v-9.381
	c0-0.438-0.291-0.728-0.728-0.728H4.437c-0.509,0-0.655-0.364-0.728-0.509s-0.146-0.509,0.146-0.873L15.491,3.854
	c0.291-0.291,0.8-0.291,1.091,0l11.563,11.563c0.364,0.364,0.218,0.728,0.146,0.873S28.072,16.8,27.563,16.8h-1.891
	c-0.437,0-0.728,0.291-0.728,0.728v3.055c0,0.436,0.291,0.727,0.728,0.727s0.728-0.291,0.728-0.727v-2.4h1.163
	c0.946,0,1.673-0.509,2.036-1.382C29.964,16,29.818,15.055,29.164,14.4z M12.8,21.673h6.474v6.69H12.8V21.673z"/>
</svg>
