<?xml version="1.0" encoding="utf-8"?>
<!-- Generator: Adobe Illustrator 16.0.0, SVG Export Plug-In . SVG Version: 6.00 Build 0)  -->
<!DOCTYPE svg PUBLIC "-//W3C//DTD SVG 1.1//EN" "http://www.w3.org/Graphics/SVG/1.1/DTD/svg11.dtd">
<svg version="1.1" id="图层_1" xmlns="http://www.w3.org/2000/svg" xmlns:xlink="http://www.w3.org/1999/xlink" x="0px" y="0px"
	 width="32px" height="32px" viewBox="0 0 32 32" enable-background="new 0 0 32 32" xml:space="preserve">
<path fill="#66CCCC" d="M26.836,25.236c-0.872-2.254-2.399-4.072-4.363-5.455c-0.363-0.218-0.8-0.145-1.018,0.219
	c-0.219,0.363-0.146,0.8,0.218,1.018c1.745,1.164,3.054,2.837,3.782,4.729c0.291,0.654,0.145,1.381-0.219,2.035
	c-0.437,0.582-1.091,0.946-1.818,0.946H8.582c-0.728,0-1.382-0.364-1.818-0.946c-0.437-0.581-0.509-1.309-0.218-2.035
	c1.527-3.928,5.236-6.474,9.455-6.474c4.582,0,8.363-3.782,8.363-8.363c0-4.655-3.709-8.364-8.363-8.364
	c-4.655,0-8.364,3.782-8.364,8.364c0,3.272,1.891,6.108,4.655,7.491c-3.2,1.09-5.891,3.49-7.2,6.836
	c-0.436,1.091-0.291,2.4,0.364,3.346c0.654,1.018,1.818,1.6,2.982,1.6h14.909c1.236,0,2.327-0.582,2.981-1.6
	C27.127,27.637,27.273,26.327,26.836,25.236z M9.091,10.909C9.091,7.127,12.218,4,16,4c3.781,0,6.909,3.127,6.909,6.909
	S19.781,17.818,16,17.818C12.218,17.818,9.091,14.691,9.091,10.909z"/>
</svg>
