<?xml version="1.0" standalone="no"?><!DOCTYPE svg PUBLIC "-//W3C//DTD SVG 1.1//EN" "http://www.w3.org/Graphics/SVG/1.1/DTD/svg11.dtd"><svg class="icon" width="128px" height="128.00px" viewBox="0 0 1024 1024" version="1.1" xmlns="http://www.w3.org/2000/svg"><path fill="#bfbfbf" d="M795.927273 512c0 13.963636 9.309091 23.272727 23.272727 23.272727s23.272727-9.309091 23.272727-23.272727c0-181.527273-148.945455-330.472727-330.472727-330.472727-13.963636 0-23.272727 9.309091-23.272727 23.272727s9.309091 23.272727 23.272727 23.272727c155.927273 0 283.927273 128 283.927273 283.927273z"  /><path fill="#bfbfbf" d="M840.145455 807.563636c69.818182-79.127273 114.036364-181.527273 114.036363-295.563636 0-244.363636-197.818182-442.181818-442.181818-442.181818S69.818182 267.636364 69.818182 512c0 74.472727 18.618182 146.618182 53.527273 211.781818 6.981818 11.636364 20.945455 16.290909 32.581818 9.309091 11.636364-6.981818 16.290909-20.945455 9.309091-32.581818C132.654545 644.654545 116.363636 577.163636 116.363636 512c0-218.763636 176.872727-395.636364 395.636364-395.636364s395.636364 176.872727 395.636364 395.636364-176.872727 395.636364-395.636364 395.636364c-79.127273 0-155.927273-23.272727-221.090909-67.490909-11.636364-6.981818-25.6-4.654545-32.581818 6.981818-6.981818 11.636364-4.654545 25.6 6.981818 32.581818C337.454545 928.581818 423.563636 954.181818 512 954.181818c114.036364 0 216.436364-44.218182 295.563636-114.036363l107.054546 107.054545c4.654545 4.654545 11.636364 6.981818 16.290909 6.981818s11.636364-2.327273 16.290909-6.981818c9.309091-9.309091 9.309091-23.272727 0-32.581818l-107.054545-107.054546z"  /></svg>