<?xml version="1.0" standalone="no"?><!DOCTYPE svg PUBLIC "-//W3C//DTD SVG 1.1//EN" "http://www.w3.org/Graphics/SVG/1.1/DTD/svg11.dtd"><svg t="1530776333702" class="icon" style="" viewBox="0 0 1024 1024" version="1.1" xmlns="http://www.w3.org/2000/svg" p-id="2387" xmlns:xlink="http://www.w3.org/1999/xlink" width="128" height="128"><defs><style type="text/css"></style></defs><path d="M732.1 346.9c4.3 16.7 6.5 34.1 6.5 51.9 0 137.6-134.3 249.1-300 249.1-21.7 0-42.9-1.9-63.3-5.5-56.2 20.1-124.7 9.7-179.4-33-73.9-57.8-96.7-154.6-56.8-226 6.6-88.7 69-164.8 158.4-204.4 53.3-37.3 138-51 226.4-30.6C648.5 177 736.7 263.1 732.1 346.9z" fill="#D4AF67" p-id="2388"></path><path d="M136 397.4c7.3 72.8 34.5 118.1 81.5 135.9 47 17.8 92.6 4.5 136.7-40 22.5 44.5 22.5 72.5 0 83.8-33.7 17 53 36 99 30.5S551.8 569 545 463.5s-50.1-148.9-28-164.2c22.1-15.3 57.2 98.1 123.6 98.1S677 245.3 611 213.8s-179.9-65.5-224-53.2c-29.4 8.2-44 4.1-44-12.3 83.8-16.5 147.8-16.5 191.8 0 66.1 24.8 181.8 66.6 186.3 151.1s27.9 194-60.7 268-180.4 85.8-226.9 81.2c-46.5-4.7-55.2 9.3-90.6 4.7-35.3-4.7-133.6-15-158.3-45.5-24.7-30.5-86.4-109.5-75.9-144.1 7.2-23.3 16.2-45.3 27.3-66.3z" fill="#8B682E" p-id="2389"></path><path d="M720.6 348.6l-0.4-1.6 0.1-1.7c3.8-78-80.9-159.4-199.2-186.7-83.2-19.2-165.3-7.5-217.3 28.9l-1.9 1.1C214 227.4 156 301.1 149.9 383.8l-0.2 2.4-1.2 2.1c-37.4 67.2-15 157.8 53.9 211.7 50.4 39.4 114.8 50.6 168.8 31.2l2.8-1 2.9 0.5c20 3.6 40.5 5.4 61.3 5.4 159.9 0 288.8-107 288.8-237.9-0.1-16.8-2.2-33.4-6.4-49.6z m28.4 49.7c0 144-139.5 259.9-310.8 259.9-21.1 0-41.9-1.8-62.3-5.2-60.6 20.6-131.6 7.7-187-35.6-76.5-59.8-102-160.8-60.8-237.6 7.5-90 70.2-169.2 163.8-211 57.5-39.8 145.4-52.2 234-31.7 126.8 29.3 219.6 117.7 216.4 207.6 4.4 17.5 6.7 35.4 6.7 53.6z" fill="#333333" p-id="2390"></path><path d="M266.3 557.4a13.6 5.6 0 1 0 27.2 0 13.6 5.6 0 1 0-27.2 0Z" fill="#7E581A" p-id="2391"></path><path d="M218.5 483.2a13.6 5.6 0 1 0 27.2 0 13.6 5.6 0 1 0-27.2 0Z" fill="#7E581A" p-id="2392"></path><path d="M395 419.4m-5.6 0a5.6 5.6 0 1 0 11.2 0 5.6 5.6 0 1 0-11.2 0Z" fill="#BD964A" p-id="2393"></path><path d="M318 353.7m-5.6 0a5.6 5.6 0 1 0 11.2 0 5.6 5.6 0 1 0-11.2 0Z" fill="#BD964A" p-id="2394"></path><path d="M285.1 430.7m-5.6 0a5.6 5.6 0 1 0 11.2 0 5.6 5.6 0 1 0-11.2 0Z" fill="#BD964A" p-id="2395"></path><path d="M229.7 265.4m-5.6 0a5.6 5.6 0 1 0 11.2 0 5.6 5.6 0 1 0-11.2 0Z" fill="#BD964A" p-id="2396"></path><path d="M297.3 221.3m-5.6 0a5.6 5.6 0 1 0 11.2 0 5.6 5.6 0 1 0-11.2 0Z" fill="#BD964A" p-id="2397"></path><path d="M396.8 165.9m-5.6 0a5.6 5.6 0 1 0 11.2 0 5.6 5.6 0 1 0-11.2 0Z" fill="#BD964A" p-id="2398"></path><path d="M529.2 221.3m-5.6 0a5.6 5.6 0 1 0 11.2 0 5.6 5.6 0 1 0-11.2 0Z" fill="#BD964A" p-id="2399"></path><path d="M430.7 242.9m-5.6 0a5.6 5.6 0 1 0 11.2 0 5.6 5.6 0 1 0-11.2 0Z" fill="#BD964A" p-id="2400"></path><path d="M615.6 242.9a13.6 5.6 0 1 0 27.2 0 13.6 5.6 0 1 0-27.2 0Z" fill="#AE8436" p-id="2401"></path><path d="M169.183316 413.623265a10.8 5.6 8.998 1 0 1.75168-11.062171 10.8 5.6 8.998 1 0-1.75168 11.062171Z" fill="#7E581A" p-id="2402"></path><path d="M680.3 465.8c10.3-5.1 21.4-8.9 33.1-10.9 73.9-13 145.8 44.2 160.5 127.8 0.9 5.2 1.6 10.3 2 15.4 1.2 4.4 2.3 8.8 3.1 13.4 18.4 104.6-101.2 219.4-237.2 237.1C505.8 866.4 385 828 345.3 706S425.6 496.1 575 469.8c36.4-6.4 72-7.5 105.3-4z" fill="#B79044" p-id="2403"></path><path d="M581.3 862.7c-48 0-91.4-8-127.8-23.8-28-12.2-52.1-28.9-71.5-49.8-20.5-22.1-36-49-46.1-80-14.3-43.9-9.9-85.5 12.9-123.5 18.8-31.3 49.1-58.4 90.2-80.7 38.1-20.7 84.6-36.2 134.4-45 35.5-6.3 70.9-7.7 105.2-4.4 10.5-5 21.7-8.5 33.2-10.5 79.2-14 156.5 47 172.1 135.9 0.9 5.1 1.6 10.2 2.1 15.4 1.2 4.4 2.2 8.9 3 13.4 7.4 41.8-5 86.2-35.9 128.2-46.7 63.6-127.1 109.8-209.9 120.6-21.3 2.8-42 4.2-61.9 4.2z m61-388.9c-21.6 0-43.5 1.9-65.5 5.8C478 497 399.2 540.5 365.9 595.9c-19.7 32.8-23.4 68.8-11 107 17.9 55.2 53.8 94.7 106.6 117.6 48.2 20.9 110.1 27.2 179.1 18.2 38.7-5 77.7-18.5 112.8-39 33.9-19.8 62.8-45.2 83.6-73.5 27.6-37.5 38.7-76.6 32.3-112.9-0.7-4.2-1.7-8.3-2.8-12.4l-0.3-0.9-0.1-0.9c-0.4-4.8-1.1-9.7-1.9-14.5-13.8-78.1-80.6-131.8-149-119.7-10.6 1.9-20.8 5.2-30.4 10l-2.6 1.3-2.9-0.3c-12.2-1.4-24.5-2.1-37-2.1z" fill="#333333" p-id="2404"></path><path d="M460.4 498.6c37.8-30.1 87.5-52.8 144-62.7 33.5-5.9 66.3-6.8 96.9-3.4 9.5-4.8 19.7-8.3 30.5-10.2 68-12 134.4 42.2 148.3 121 0.9 4.9 1.5 9.7 1.9 14.5 1.2 4.1 2.1 8.3 2.9 12.6 17.4 98.6-80 198.1-217.5 222.4-56.5 10-111 5.7-156.8-9.7C446 788.8 385 736 371.7 660.9s26.1-145.6 88.7-162.3z" fill="#FFEFB9" p-id="2405"></path><path d="M515.8 472c-64.5 66.7-80.9 129.1-49.2 186.9 47.5 86.8 115.9 107.9 267.9 73C886.6 697 846 568.9 876.4 557c20.3-8 20.3 27.8 0 107.4l-89.8 91.8-203.1 41.7-67.7-14h-45.4l-44-27.7c-21.7-28.7-34.4-45.4-38.1-50.1-3.7-4.7-12.1-28.4-25.3-71.1l25.3-93.6 22.5-34.2 43.1-14.4 61.9-20.8z" fill="#DEC593" p-id="2406"></path><path d="M472.8 499.6L471 501l-2.2 0.5c-57.8 12.3-97 75.5-88.4 145.5s61.8 121.9 120.9 119.8l2.3-0.1 2.1 0.8c44.4 17.6 96.9 23.8 150.5 17.3 133.1-16.3 230.4-106.1 219.1-198.6-0.5-3.9-1.2-7.8-2-11.7l-0.3-2c-0.2-4.5-0.5-9.1-1.1-13.7-9.1-73.8-67.4-126.8-129.4-119.1-9.7 1.2-19 3.8-27.8 7.7l-3 1.3-3.2-0.5c-30-5-61.7-5.6-93.8-1.7-53.6 6.6-103 25.3-141.9 53.1z m139.2-75c33-4.1 65.7-3.6 96.8 1.3 9.9-4.1 20.3-6.8 31-8.1 74.9-9.2 143.5 53.1 154 138.4 0.6 4.9 1 9.7 1.2 14.6 0.9 4.2 1.6 8.5 2.2 12.8C910.3 690 802.8 789 658.9 806.7c-56.4 6.9-111.8 0.5-159.2-17.8-70.2 1.1-131.4-59.3-141.3-139.2-9.8-80 35-153.4 103.4-169.3 41.7-29.3 93.8-48.9 150.2-55.8z" fill="#333333" p-id="2407"></path></svg>